<svg xmlns="http://www.w3.org/2000/svg" viewBox="0 0 288.88 60.28"><defs><style>.cls-1{fill:#fbf3f1;}.cls-2{fill:#8ec582;}</style></defs><g id="Layer_2" data-name="Layer 2"><g id="Layer_1-2" data-name="Layer 1"><polygon class="cls-1" points="69.03 42.02 68.58 42.02 57.29 16.19 60.41 16.19 68.89 36.27 77.3 16.19 80.31 16.19 69.03 42.02"/><polygon class="cls-1" points="90.18 41.57 90.18 16.19 105.03 16.19 105.03 18.68 92.95 18.68 92.95 27.44 103.82 27.44 103.82 29.93 92.95 29.93 92.95 39.08 105.03 39.08 105.03 41.57 90.18 41.57"/><path class="cls-1" d="M131.1,41.57l-6.75-10c-.28,0-.56,0-.84.05s-.56,0-.86,0-.9,0-1.44,0-1,0-1.43-.05v10H117V16.43c.94-.11,1.89-.21,2.83-.29s2-.12,3-.12a14.57,14.57,0,0,1,4.29.57,8.58,8.58,0,0,1,3,1.59A6.44,6.44,0,0,1,132,20.61a7.42,7.42,0,0,1,.61,3,7.37,7.37,0,0,1-1.42,4.56A8,8,0,0,1,127.08,31l7.37,10.6Zm-1.46-17.76a5.36,5.36,0,0,0-.41-2.08A4.9,4.9,0,0,0,128,20.05a5.71,5.71,0,0,0-2-1.12,8.24,8.24,0,0,0-2.75-.42c-.6,0-1.22,0-1.85,0a8.74,8.74,0,0,0-1.64.23V29.1c.41,0,.91.09,1.48.13s1.11.05,1.6.05c2.37,0,4.1-.5,5.17-1.49a5.17,5.17,0,0,0,1.61-4"/><polygon class="cls-1" points="153.8 18.68 153.8 41.57 151.03 41.57 151.03 18.68 142.55 18.68 142.55 16.19 162.25 16.19 162.25 18.68 153.8 18.68"/><rect class="cls-1" x="172.98" y="16.19" width="2.77" height="25.38"/><path class="cls-1" d="M209.36,39.56a18.94,18.94,0,0,1-3.68,1.68A15.38,15.38,0,0,1,195.59,41a12.71,12.71,0,0,1-4.26-2.71,12.38,12.38,0,0,1-2.81-4.16,13.62,13.62,0,0,1-1-5.24,13.19,13.19,0,0,1,1-5.21,12.56,12.56,0,0,1,2.82-4.16,13.28,13.28,0,0,1,4.28-2.75,14.07,14.07,0,0,1,5.35-1,14.23,14.23,0,0,1,4.69.74,18.94,18.94,0,0,1,3.68,1.68l-1.14,2.35A17.63,17.63,0,0,0,204.59,19a12.85,12.85,0,0,0-3.85-.63,11,11,0,0,0-4.29.8,9.2,9.2,0,0,0-3.22,2.21,9.92,9.92,0,0,0-2,3.35,12.24,12.24,0,0,0-.69,4.17,11.57,11.57,0,0,0,.73,4.17,9.42,9.42,0,0,0,2.09,3.32,9.74,9.74,0,0,0,3.31,2.2,11.29,11.29,0,0,0,4.33.8,12.84,12.84,0,0,0,3.84-.63,17.43,17.43,0,0,0,3.64-1.56Z"/><path class="cls-1" d="M237.68,41.57l-3-7H223.32l-3,7h-2.87l11.39-25.83h.45l11.39,25.83ZM229,21.31l-4.67,10.91h9.35Z"/><polygon class="cls-1" points="250.53 41.57 250.53 16.19 253.29 16.19 253.29 39.08 265.38 39.08 265.38 41.57 250.53 41.57"/><path class="cls-1" d="M288.88,34.71a6.87,6.87,0,0,1-.59,2.88,7.27,7.27,0,0,1-1.62,2.3,7.49,7.49,0,0,1-2.46,1.54,8.39,8.39,0,0,1-3.08.55,11.74,11.74,0,0,1-3.93-.62,15.65,15.65,0,0,1-3.41-1.73l1.35-2.42a13.4,13.4,0,0,0,3,1.64,8.79,8.79,0,0,0,3.09.61,5.68,5.68,0,0,0,2.11-.37,4.08,4.08,0,0,0,2.37-2.4A5,5,0,0,0,286,35a5.59,5.59,0,0,0-.2-1.52,3.56,3.56,0,0,0-.75-1.31A6.23,6.23,0,0,0,283.57,31a21.16,21.16,0,0,0-2.55-1.3,21,21,0,0,1-2.8-1.47,8.24,8.24,0,0,1-1.85-1.6,5.48,5.48,0,0,1-1-1.8A6.32,6.32,0,0,1,275,22.7a6.56,6.56,0,0,1,.55-2.63,6.81,6.81,0,0,1,1.58-2.2,7.81,7.81,0,0,1,2.46-1.52,8.48,8.48,0,0,1,3.17-.57,9.78,9.78,0,0,1,3.08.48,10,10,0,0,1,2.56,1.25l-1.25,2.35A8.28,8.28,0,0,0,285,18.74a7.06,7.06,0,0,0-2.44-.44,5.91,5.91,0,0,0-2.09.35,4.33,4.33,0,0,0-1.51.92,3.9,3.9,0,0,0-.9,1.35,4.35,4.35,0,0,0-.31,1.64,3.54,3.54,0,0,0,1,2.42,10.1,10.1,0,0,0,3.34,2.19,31.4,31.4,0,0,1,3.29,1.71,9.57,9.57,0,0,1,2.09,1.68,5,5,0,0,1,1.09,1.87,7.62,7.62,0,0,1,.31,2.28"/><path class="cls-2" d="M15.32,19.47a4.91,4.91,0,1,1-4.91-4.91,4.91,4.91,0,0,1,4.91,4.91"/><path class="cls-1" d="M34.57,16.21,43.93,0H6.06L9.37,5.73H34L21.69,27.07,25,32.8l6.77-11.73a17.83,17.83,0,0,1-8.34,33.6h0a17.81,17.81,0,0,1-6.52-1.24A17.08,17.08,0,0,1,14,51.93L11.18,56.8a23.65,23.65,0,0,0,3.66,1.84,23.43,23.43,0,0,0,30.41-13.2A23.55,23.55,0,0,0,34.57,16.21"/><path class="cls-2" d="M9.62,48.06A17.91,17.91,0,0,1,6.86,30.29l.33-.85L2,27.39l-.34.84a23.39,23.39,0,0,0,5,24.94Z"/></g></g></svg>